<svg width="14" height="15" viewBox="0 0 14 15" fill="none" xmlns="http://www.w3.org/2000/svg">
<path d="M8.26766 3.99251L10.6951 6.5211C10.5206 6.70856 10.2828 6.96377 10.0011 7.26544C9.38991 7.91995 8.57251 8.79286 7.7471 9.66696C6.9213 10.5415 6.0891 11.4155 5.44777 12.0728C5.13448 12.3939 4.86957 12.6605 4.67426 12.8493L2.20128 10.2733C2.20462 10.2696 2.20799 10.2659 2.2114 10.2622C2.39698 10.0578 2.66045 9.77638 2.97746 9.44232C3.6108 8.77493 4.44951 7.90638 5.28724 7.044C6.12467 6.18193 6.95995 5.32723 7.58595 4.68797C7.85865 4.40949 8.09159 4.17193 8.26766 3.99251ZM1.71122 11.2068L3.79339 13.3757C3.50435 13.4843 3.15424 13.6027 2.80361 13.7157C2.08998 13.9456 1.39482 14.1466 1.25446 14.1869C1.23615 14.1922 1.20964 14.2005 1.19822 14.2041C1.19562 14.2049 1.1938 14.2054 1.19304 14.2057C1.11518 14.2295 1.03808 14.2088 0.975692 14.1431C0.912358 14.0765 0.880703 13.9775 0.912589 13.869L0.433167 13.7281L0.912591 13.869C0.912842 13.8681 0.913289 13.8666 0.913882 13.8646C0.916387 13.8562 0.921492 13.8391 0.925403 13.8251L0.443621 13.6913L0.925403 13.8251C0.958394 13.7062 1.15892 12.9867 1.38568 12.236C1.49422 11.8766 1.60778 11.5134 1.71122 11.2068ZM10.7066 1.46041C11.0826 1.06876 11.6834 1.06876 12.0594 1.46041L13.0965 2.54072C13.4835 2.94387 13.4835 3.60563 13.0965 4.00879L12.4198 4.71363L10.0017 2.19471L10.7066 1.46041Z" fill="#BCCEED" stroke="black"/>
</svg>
